MutatorSansInstance_800-600.ufo
<glyph name="comma" format="2">
  <advance width="277"/>
  <unicode hex="002C"/>
  <outline>
    <contour>
      <point x="220" y="0" type="line"/>
      <point x="220" y="276" type="line"/>
      <point x="58" y="276" type="line"/>
      <point x="58" y="0" type="line"/>
      <point x="127" y="-14" type="line"/>
      <point x="119" y="12" type="line"/>
      <point x="97" y="-133" type="line"/>
      <point x="157" y="-135" type="line"/>
    </contour>
  </outline>
</glyph>
<glyph name="period" format="2">
  <advance width="277"/>
  <unicode hex="002E"/>
  <outline>
    <contour>
      <point x="58" y="0" type="line"/>
      <point x="220" y="0" type="line"/>
      <point x="220" y="276" type="line"/>
      <point x="58" y="276" type="line"/>
    </contour>
  </outline>
</glyph>
<glyph name="A" format="2">
  <advance width="1032"/>
  <unicode hex="0041"/>
  <outline>
    <contour>
      <point x="22" y="0" type="line"/>
      <point x="266" y="0" type="line"/>
      <point x="504" y="780" type="line"/>
      <point x="294" y="780" type="line"/>
    </contour>
    <contour>
      <point x="173" y="136" type="line"/>
      <point x="777" y="136" type="line"/>
      <point x="777" y="315" type="line"/>
      <point x="173" y="315" type="line"/>
    </contour>
    <contour>
      <point x="667" y="0" type="line"/>
      <point x="1011" y="0" type="line"/>
      <point x="738" y="780" type="line"/>
      <point x="410" y="780" type="line"/>
    </contour>
    <contour>
      <point x="345" y="565" type="line"/>
      <point x="644" y="565" type="line"/>
      <point x="644" y="780" type="line"/>
      <point x="345" y="780" type="line"/>
    </contour>
  </outline>
</glyph>
<glyph name="B" format="2">
  <advance width="1027"/>
  <unicode hex="0042"/>
  <outline>
    <contour>
      <point x="58" y="0" type="line"/>
      <point x="366" y="0" type="line"/>
      <point x="366" y="780" type="line"/>
      <point x="58" y="780" type="line"/>
    </contour>
    <contour>
      <point x="329" y="339" type="line"/>
      <point x="608" y="339" type="line" smooth="yes"/>
      <point x="660" y="339"/>
      <point x="694" y="321"/>
      <point x="694" y="267" type="curve" smooth="yes"/>
      <point x="694" y="218"/>
      <point x="660" y="198"/>
      <point x="607" y="198" type="curve" smooth="yes"/>
      <point x="329" y="198" type="line"/>
      <point x="329" y="0" type="line"/>
      <point x="705" y="0" type="line" smooth="yes"/>
      <point x="941" y="0"/>
      <point x="1002" y="91"/>
      <point x="1002" y="221" type="curve" smooth="yes"/>
      <point x="1002" y="339"/>
      <point x="938" y="403"/>
      <point x="839" y="420" type="curve"/>
      <point x="820" y="371" type="line"/>
      <point x="900" y="387"/>
      <point x="975" y="443"/>
      <point x="975" y="554" type="curve" smooth="yes"/>
      <point x="975" y="692"/>
      <point x="900" y="780"/>
      <point x="665" y="780" type="curve" smooth="yes"/>
      <point x="329" y="780" type="line"/>
      <point x="329" y="592" type="line"/>
      <point x="581" y="592" type="line" smooth="yes"/>
      <point x="638" y="592"/>
      <point x="671" y="572"/>
      <point x="671" y="524" type="curve" smooth="yes"/>
      <point x="671" y="467"/>
      <point x="637" y="454"/>
      <point x="581" y="454" type="curve" smooth="yes"/>
      <point x="329" y="454" type="line"/>
    </contour>
  </outline>
</glyph>
<glyph name="C" format="2">
  <advance width="1119"/>
  <unicode hex="0043"/>
  <outline>
    <contour>
      <point x="773" y="349" type="line"/>
      <point x="759" y="247"/>
      <point x="695" y="208"/>
      <point x="593" y="208" type="curve" smooth="yes"/>
      <point x="538" y="208" type="line" smooth="yes"/>
      <point x="424" y="208"/>
      <point x="358" y="262"/>
      <point x="358" y="393" type="curve" smooth="yes"/>
      <point x="358" y="521"/>
      <point x="424" y="572"/>
      <point x="538" y="572" type="curve" smooth="yes"/>
      <point x="593" y="572" type="line" smooth="yes"/>
      <point x="695" y="572"/>
      <point x="758" y="535"/>
      <point x="773" y="438" type="curve"/>
      <point x="1079" y="470" type="line"/>
      <point x="1046" y="688"/>
      <point x="876" y="790"/>
      <point x="620" y="790" type="curve" smooth="yes"/>
      <point x="509" y="790" type="line" smooth="yes"/>
      <point x="220" y="790"/>
      <point x="39" y="664"/>
      <point x="39" y="393" type="curve" smooth="yes"/>
      <point x="39" y="119"/>
      <point x="220" y="-10"/>
      <point x="509" y="-10" type="curve" smooth="yes"/>
      <point x="620" y="-10" type="line" smooth="yes"/>
      <point x="877" y="-10"/>
      <point x="1048" y="96"/>
      <point x="1080" y="319" type="curve"/>
    </contour>
  </outline>
</glyph>
<glyph name="D" format="2">
  <advance width="1011"/>
  <unicode hex="0044"/>
  <outline>
    <contour>
      <point x="58" y="0" type="line"/>
      <point x="360" y="0" type="line"/>
      <point x="360" y="780" type="line"/>
      <point x="58" y="780" type="line"/>
    </contour>
    <contour>
      <point x="314" y="570" type="line"/>
      <point x="470" y="570" type="line" smooth="yes"/>
      <point x="585" y="570"/>
      <point x="653" y="521"/>
      <point x="653" y="393" type="curve" smooth="yes"/>
      <point x="653" y="262"/>
      <point x="585" y="210"/>
      <point x="470" y="210" type="curve" smooth="yes"/>
      <point x="312" y="210" type="line"/>
      <point x="312" y="0" type="line"/>
      <point x="497" y="0" type="line" smooth="yes"/>
      <point x="787" y="0"/>
      <point x="971" y="121"/>
      <point x="971" y="393" type="curve" smooth="yes"/>
      <point x="971" y="662"/>
      <point x="787" y="780"/>
      <point x="497" y="780" type="curve" smooth="yes"/>
      <point x="314" y="780" type="line"/>
    </contour>
  </outline>
</glyph>
<glyph name="E" format="2">
  <advance width="935"/>
  <unicode hex="0045"/>
  <anchor x="460" y="822" name="top"/>
  <outline>
    <contour>
      <point x="61" y="0" type="line"/>
      <point x="363" y="0" type="line"/>
      <point x="363" y="780" type="line"/>
      <point x="61" y="780" type="line"/>
    </contour>
    <contour>
      <point x="137" y="557" type="line"/>
      <point x="879" y="557" type="line"/>
      <point x="879" y="780" type="line"/>
      <point x="137" y="780" type="line"/>
    </contour>
    <contour>
      <point x="137" y="0" type="line"/>
      <point x="879" y="0" type="line"/>
      <point x="879" y="223" type="line"/>
      <point x="137" y="223" type="line"/>
    </contour>
    <contour>
      <point x="137" y="319" type="line"/>
      <point x="750" y="319" type="line"/>
      <point x="750" y="462" type="line"/>
      <point x="137" y="462" type="line"/>
    </contour>
  </outline>
</glyph>
<glyph name="F" format="2">
  <advance width="930"/>
  <unicode hex="0046"/>
  <outline>
    <contour>
      <point x="58" y="0" type="line"/>
      <point x="370" y="0" type="line"/>
      <point x="370" y="780" type="line"/>
      <point x="58" y="780" type="line"/>
    </contour>
    <contour>
      <point x="137" y="563" type="line"/>
      <point x="872" y="563" type="line"/>
      <point x="872" y="780" type="line"/>
      <point x="137" y="780" type="line"/>
    </contour>
    <contour>
      <point x="137" y="261" type="line"/>
      <point x="809" y="261" type="line"/>
      <point x="809" y="446" type="line"/>
      <point x="137" y="446" type="line"/>
    </contour>
  </outline>
</glyph>
<glyph name="G" format="2">
  <advance width="1148"/>
  <unicode hex="0047"/>
  <outline>
    <contour>
      <point x="518" y="309" type="line"/>
      <point x="803" y="309" type="line"/>
      <point x="803" y="216" type="line"/>
      <point x="934" y="0" type="line"/>
      <point x="1092" y="0" type="line"/>
      <point x="1092" y="399" type="line"/>
      <point x="518" y="399" type="line"/>
    </contour>
    <contour>
      <point x="786" y="355" type="line"/>
      <point x="772" y="252"/>
      <point x="706" y="208"/>
      <point x="599" y="208" type="curve" smooth="yes"/>
      <point x="538" y="208" type="line" smooth="yes"/>
      <point x="424" y="208"/>
      <point x="358" y="262"/>
      <point x="358" y="393" type="curve" smooth="yes"/>
      <point x="358" y="521"/>
      <point x="426" y="572"/>
      <point x="544" y="572" type="curve" smooth="yes"/>
      <point x="604" y="572" type="line" smooth="yes"/>
      <point x="707" y="572"/>
      <point x="771" y="535"/>
      <point x="786" y="438" type="curve"/>
      <point x="1082" y="470" type="line"/>
      <point x="1049" y="688"/>
      <point x="881" y="790"/>
      <point x="627" y="790" type="curve" smooth="yes"/>
      <point x="510" y="790" type="line" smooth="yes"/>
      <point x="221" y="790"/>
      <point x="39" y="664"/>
      <point x="39" y="393" type="curve" smooth="yes"/>
      <point x="39" y="119"/>
      <point x="220" y="-10"/>
      <point x="509" y="-10" type="curve" smooth="yes"/>
      <point x="540" y="-10" type="line" smooth="yes"/>
      <point x="795" y="-10"/>
      <point x="962" y="101"/>
      <point x="993" y="325" type="curve"/>
    </contour>
  </outline>
</glyph>
<glyph name="H" format="2">
  <advance width="1066"/>
  <unicode hex="0048"/>
  <outline>
    <contour>
      <point x="58" y="0" type="line"/>
      <point x="370" y="0" type="line"/>
      <point x="370" y="780" type="line"/>
      <point x="58" y="780" type="line"/>
    </contour>
    <contour>
      <point x="179" y="280" type="line"/>
      <point x="888" y="280" type="line"/>
      <point x="888" y="495" type="line"/>
      <point x="179" y="495" type="line"/>
    </contour>
    <contour>
      <point x="697" y="0" type="line"/>
      <point x="1009" y="0" type="line"/>
      <point x="1009" y="780" type="line"/>
      <point x="697" y="780" type="line"/>
    </contour>
  </outline>
</glyph>
<glyph name="I" format="2">
  <advance width="806"/>
  <unicode hex="0049"/>
  <outline>
    <contour>
      <point x="248" y="0" type="line"/>
      <point x="560" y="0" type="line"/>
      <point x="560" y="780" type="line"/>
      <point x="248" y="780" type="line"/>
    </contour>
    <contour>
      <point x="58" y="554" type="line"/>
      <point x="748" y="554" type="line"/>
      <point x="748" y="780" type="line"/>
      <point x="58" y="780" type="line"/>
    </contour>
    <contour>
      <point x="58" y="0" type="line"/>
      <point x="748" y="0" type="line"/>
      <point x="748" y="226" type="line"/>
      <point x="58" y="226" type="line"/>
    </contour>
  </outline>
</glyph>
<glyph name="J" format="2">
  <advance width="773"/>
  <unicode hex="004A"/>
  <outline>
    <contour>
      <point x="224" y="-10" type="curve" smooth="yes"/>
      <point x="527" y="-10"/>
      <point x="715" y="115"/>
      <point x="715" y="378" type="curve" smooth="yes"/>
      <point x="715" y="780" type="line"/>
      <point x="398" y="780" type="line"/>
      <point x="398" y="413" type="line" smooth="yes"/>
      <point x="398" y="283"/>
      <point x="329" y="229"/>
      <point x="213" y="229" type="curve" smooth="yes"/>
      <point x="183" y="229"/>
      <point x="141" y="232"/>
      <point x="97" y="240" type="curve"/>
      <point x="58" y="7" type="line"/>
      <point x="108" y="-5"/>
      <point x="164" y="-10"/>
    </contour>
  </outline>
</glyph>
<glyph name="K" format="2">
  <advance width="1051"/>
  <unicode hex="004B"/>
  <outline>
    <contour>
      <point x="58" y="0" type="line"/>
      <point x="370" y="0" type="line"/>
      <point x="370" y="780" type="line"/>
      <point x="58" y="780" type="line"/>
    </contour>
    <contour>
      <point x="281" y="312" type="line"/>
      <point x="389" y="312" type="line"/>
      <point x="640" y="0" type="line"/>
      <point x="1027" y="0" type="line"/>
      <point x="647" y="495" type="line"/>
      <point x="396" y="431" type="line"/>
      <point x="281" y="431" type="line"/>
    </contour>
    <contour>
      <point x="373" y="407" type="line"/>
      <point x="560" y="318" type="line"/>
      <point x="1017" y="780" type="line"/>
      <point x="668" y="780" type="line"/>
    </contour>
  </outline>
</glyph>
<glyph name="L" format="2">
  <advance width="836"/>
  <unicode hex="004C"/>
  <outline>
    <contour>
      <point x="58" y="0" type="line"/>
      <point x="370" y="0" type="line"/>
      <point x="370" y="780" type="line"/>
      <point x="58" y="780" type="line"/>
    </contour>
    <contour>
      <point x="137" y="0" type="line"/>
      <point x="812" y="0" type="line"/>
      <point x="812" y="222" type="line"/>
      <point x="137" y="222" type="line"/>
    </contour>
  </outline>
</glyph>
<glyph name="M" format="2">
  <advance width="1081"/>
  <unicode hex="004D"/>
  <outline>
    <contour>
      <point x="58" y="0" type="line"/>
      <point x="299" y="0" type="line"/>
      <point x="299" y="780" type="line"/>
      <point x="58" y="780" type="line"/>
    </contour>
    <contour>
      <point x="1024" y="0" type="line"/>
      <point x="1024" y="780" type="line"/>
      <point x="782" y="780" type="line"/>
      <point x="782" y="0" type="line"/>
    </contour>
    <contour>
      <point x="885" y="463" type="line"/>
      <point x="782" y="780" type="line"/>
      <point x="521" y="498" type="line"/>
      <point x="561" y="498" type="line"/>
      <point x="299" y="780" type="line"/>
      <point x="196" y="463" type="line"/>
      <point x="492" y="155" type="line"/>
      <point x="589" y="155" type="line"/>
    </contour>
  </outline>
</glyph>
<glyph name="N" format="2">
  <advance width="1059"/>
  <unicode hex="004E"/>
  <outline>
    <contour>
      <point x="58" y="0" type="line"/>
      <point x="299" y="0" type="line"/>
      <point x="299" y="780" type="line"/>
      <point x="58" y="780" type="line"/>
    </contour>
    <contour>
      <point x="182" y="516" type="line"/>
      <point x="760" y="0" type="line"/>
      <point x="877" y="264" type="line"/>
      <point x="299" y="780" type="line"/>
    </contour>
    <contour>
      <point x="760" y="0" type="line"/>
      <point x="1002" y="0" type="line"/>
      <point x="1002" y="780" type="line"/>
      <point x="760" y="780" type="line"/>
    </contour>
  </outline>
</glyph>
<glyph name="O" format="2">
  <advance width="1132"/>
  <unicode hex="004F"/>
  <outline>
    <contour>
      <point x="509" y="-10" type="curve" smooth="yes"/>
      <point x="621" y="-10" type="line" smooth="yes"/>
      <point x="910" y="-10"/>
      <point x="1093" y="119"/>
      <point x="1093" y="393" type="curve" smooth="yes"/>
      <point x="1093" y="664"/>
      <point x="910" y="790"/>
      <point x="621" y="790" type="curve" smooth="yes"/>
      <point x="509" y="790" type="line" smooth="yes"/>
      <point x="220" y="790"/>
      <point x="39" y="664"/>
      <point x="39" y="393" type="curve" smooth="yes"/>
      <point x="39" y="119"/>
      <point x="220" y="-10"/>
    </contour>
    <contour>
      <point x="538" y="208" type="line" smooth="yes"/>
      <point x="424" y="208"/>
      <point x="358" y="262"/>
      <point x="358" y="393" type="curve" smooth="yes"/>
      <point x="358" y="521"/>
      <point x="424" y="572"/>
      <point x="538" y="572" type="curve" smooth="yes"/>
      <point x="594" y="572" type="line" smooth="yes"/>
      <point x="708" y="572"/>
      <point x="775" y="521"/>
      <point x="775" y="393" type="curve" smooth="yes"/>
      <point x="775" y="262"/>
      <point x="708" y="208"/>
      <point x="594" y="208" type="curve" smooth="yes"/>
    </contour>
  </outline>
</glyph>
<glyph name="P" format="2">
  <advance width="975"/>
  <unicode hex="0050"/>
  <outline>
    <contour>
      <point x="58" y="0" type="line"/>
      <point x="370" y="0" type="line"/>
      <point x="370" y="780" type="line"/>
      <point x="58" y="780" type="line"/>
    </contour>
    <contour>
      <point x="262" y="554" type="line"/>
      <point x="550" y="554" type="line" smooth="yes"/>
      <point x="636" y="554"/>
      <point x="668" y="526"/>
      <point x="668" y="461" type="curve" smooth="yes"/>
      <point x="668" y="390"/>
      <point x="636" y="366"/>
      <point x="550" y="366" type="curve" smooth="yes"/>
      <point x="262" y="366" type="line"/>
      <point x="262" y="139" type="line"/>
      <point x="539" y="139" type="line" smooth="yes"/>
      <point x="853" y="139"/>
      <point x="952" y="251"/>
      <point x="952" y="461" type="curve" smooth="yes"/>
      <point x="952" y="669"/>
      <point x="853" y="780"/>
      <point x="540" y="780" type="curve" smooth="yes"/>
      <point x="262" y="780" type="line"/>
    </contour>
  </outline>
</glyph>
<glyph name="Q" format="2">
  <advance width="1132"/>
  <unicode hex="0051"/>
  <outline>
    <contour>
      <point x="511" y="-130" type="line"/>
      <point x="821" y="-130" type="line"/>
      <point x="699" y="139" type="line"/>
      <point x="400" y="135" type="line"/>
    </contour>
    <component base="O"/>
  </outline>
</glyph>
<glyph name="R" format="2">
  <advance width="987"/>
  <unicode hex="0052"/>
  <outline>
    <contour>
      <point x="627" y="0" type="line"/>
      <point x="948" y="0" type="line"/>
      <point x="889" y="130" type="line" smooth="yes"/>
      <point x="853" y="192"/>
      <point x="808" y="236"/>
      <point x="732" y="236" type="curve"/>
      <point x="527" y="236" type="line"/>
    </contour>
    <contour>
      <point x="58" y="0" type="line"/>
      <point x="370" y="0" type="line"/>
      <point x="370" y="780" type="line"/>
      <point x="58" y="780" type="line"/>
    </contour>
    <contour>
      <point x="262" y="554" type="line"/>
      <point x="555" y="554" type="line" smooth="yes"/>
      <point x="639" y="554"/>
      <point x="671" y="526"/>
      <point x="671" y="461" type="curve" smooth="yes"/>
      <point x="671" y="390"/>
      <point x="639" y="366"/>
      <point x="555" y="366" type="curve" smooth="yes"/>
      <point x="262" y="366" type="line"/>
      <point x="262" y="187" type="line"/>
      <point x="546" y="187" type="line" smooth="yes"/>
      <point x="853" y="187"/>
      <point x="955" y="291"/>
      <point x="955" y="485" type="curve" smooth="yes"/>
      <point x="955" y="677"/>
      <point x="849" y="780"/>
      <point x="543" y="780" type="curve" smooth="yes"/>
      <point x="262" y="780" type="line"/>
    </contour>
  </outline>
</glyph>
<glyph name="S" format="2">
  <advance width="987"/>
  <unicode hex="0053"/>
  <outline>
    <contour>
      <point x="950" y="238" type="curve" smooth="yes"/>
      <point x="950" y="427"/>
      <point x="841" y="484"/>
      <point x="589" y="498" type="curve" smooth="yes"/>
      <point x="449" y="506" type="line" smooth="yes"/>
      <point x="329" y="514"/>
      <point x="304" y="523"/>
      <point x="304" y="548" type="curve" smooth="yes"/>
      <point x="304" y="574"/>
      <point x="336" y="588"/>
      <point x="434" y="588" type="curve" smooth="yes"/>
      <point x="553" y="588" type="line" smooth="yes"/>
      <point x="679" y="588"/>
      <point x="795" y="575"/>
      <point x="882" y="559" type="curve"/>
      <point x="915" y="751" type="line"/>
      <point x="827" y="770"/>
      <point x="683" y="790"/>
      <point x="589" y="790" type="curve" smooth="yes"/>
      <point x="509" y="790" type="line" smooth="yes"/>
      <point x="181" y="790"/>
      <point x="45" y="704"/>
      <point x="45" y="529" type="curve" smooth="yes"/>
      <point x="46" y="360"/>
      <point x="171" y="298"/>
      <point x="407" y="284" type="curve" smooth="yes"/>
      <point x="541" y="276" type="line" smooth="yes"/>
      <point x="654" y="266"/>
      <point x="685" y="261"/>
      <point x="685" y="232" type="curve" smooth="yes"/>
      <point x="685" y="207"/>
      <point x="650" y="193"/>
      <point x="546" y="193" type="curve" smooth="yes"/>
      <point x="433" y="193" type="line" smooth="yes"/>
      <point x="294" y="193"/>
      <point x="168" y="205"/>
      <point x="71" y="224" type="curve"/>
      <point x="39" y="29" type="line"/>
      <point x="139" y="8"/>
      <point x="295" y="-10"/>
      <point x="398" y="-10" type="curve" smooth="yes"/>
      <point x="487" y="-10" type="line" smooth="yes"/>
      <point x="842" y="-10"/>
      <point x="950" y="92"/>
    </contour>
  </outline>
</glyph>
<glyph name="T" format="2">
  <advance width="975"/>
  <unicode hex="0054"/>
  <outline>
    <contour>
      <point x="332" y="0" type="line"/>
      <point x="644" y="0" type="line"/>
      <point x="644" y="780" type="line"/>
      <point x="332" y="780" type="line"/>
    </contour>
    <contour>
      <point x="23" y="544" type="line"/>
      <point x="952" y="544" type="line"/>
      <point x="952" y="780" type="line"/>
      <point x="23" y="780" type="line"/>
    </contour>
  </outline>
</glyph>
<glyph name="U" format="2">
  <advance width="1058"/>
  <unicode hex="0055"/>
  <outline>
    <contour>
      <point x="528" y="-10" type="curve" smooth="yes"/>
      <point x="821" y="-10"/>
      <point x="986" y="114"/>
      <point x="986" y="374" type="curve" smooth="yes"/>
      <point x="986" y="780" type="line"/>
      <point x="668" y="780" type="line"/>
      <point x="668" y="358" type="line" smooth="yes"/>
      <point x="668" y="262"/>
      <point x="616" y="223"/>
      <point x="529" y="223" type="curve" smooth="yes"/>
      <point x="442" y="223"/>
      <point x="390" y="262"/>
      <point x="390" y="358" type="curve" smooth="yes"/>
      <point x="390" y="780" type="line"/>
      <point x="72" y="780" type="line"/>
      <point x="72" y="374" type="line" smooth="yes"/>
      <point x="72" y="114"/>
      <point x="235" y="-10"/>
    </contour>
  </outline>
</glyph>
<glyph name="V" format="2">
  <advance width="1043"/>
  <unicode hex="0056"/>
  <outline>
    <contour>
      <point x="1023" y="780" type="line"/>
      <point x="776" y="780" type="line"/>
      <point x="520" y="0" type="line"/>
      <point x="734" y="0" type="line"/>
    </contour>
    <contour>
      <point x="364" y="780" type="line"/>
      <point x="19" y="780" type="line"/>
      <point x="306" y="0" type="line"/>
      <point x="633" y="0" type="line"/>
    </contour>
    <contour>
      <point x="692" y="215" type="line"/>
      <point x="391" y="215" type="line"/>
      <point x="391" y="0" type="line"/>
      <point x="692" y="0" type="line"/>
    </contour>
  </outline>
</glyph>
<glyph name="W" format="2">
  <advance width="1147"/>
  <unicode hex="0057"/>
  <outline>
    <contour>
      <point x="1127" y="780" type="line"/>
      <point x="854" y="780" type="line"/>
      <point x="761" y="228" type="line"/>
      <point x="788" y="228" type="line"/>
      <point x="691" y="780" type="line"/>
      <point x="487" y="780" type="line"/>
      <point x="398" y="227" type="line"/>
      <point x="425" y="227" type="line"/>
      <point x="328" y="780" type="line"/>
      <point x="19" y="780" type="line"/>
      <point x="175" y="0" type="line"/>
      <point x="485" y="0" type="line"/>
      <point x="576" y="486" type="line"/>
      <point x="529" y="486" type="line"/>
      <point x="635" y="0" type="line"/>
      <point x="975" y="0" type="line"/>
    </contour>
  </outline>
</glyph>
<glyph name="X" format="2">
  <advance width="1009"/>
  <unicode hex="0058"/>
  <outline>
    <contour>
      <point x="622" y="0" type="line"/>
      <point x="990" y="0" type="line"/>
      <point x="628" y="455" type="line"/>
      <point x="389" y="780" type="line"/>
      <point x="21" y="780" type="line"/>
      <point x="369" y="361" type="line"/>
    </contour>
    <contour>
      <point x="19" y="0" type="line"/>
      <point x="318" y="0" type="line"/>
      <point x="505" y="323" type="line"/>
      <point x="642" y="334" type="line"/>
      <point x="988" y="780" type="line"/>
      <point x="689" y="780" type="line"/>
      <point x="493" y="477" type="line"/>
      <point x="352" y="460" type="line"/>
    </contour>
  </outline>
</glyph>
<glyph name="Y" format="2">
  <advance width="970"/>
  <unicode hex="0059"/>
  <outline>
    <contour>
      <point x="952" y="780" type="line"/>
      <point x="701" y="780" type="line"/>
      <point x="438" y="206" type="line"/>
      <point x="640" y="202" type="line"/>
    </contour>
    <contour>
      <point x="346" y="780" type="line"/>
      <point x="18" y="780" type="line"/>
      <point x="330" y="202" type="line"/>
      <point x="616" y="206" type="line"/>
    </contour>
    <contour>
      <point x="641" y="314" type="line"/>
      <point x="329" y="314" type="line"/>
      <point x="329" y="0" type="line"/>
      <point x="641" y="0" type="line"/>
    </contour>
  </outline>
</glyph>
<glyph name="Z" format="2">
  <advance width="998"/>
  <unicode hex="005A"/>
  <outline>
    <contour>
      <point x="58" y="222" type="line"/>
      <point x="426" y="164" type="line"/>
      <point x="941" y="558" type="line"/>
      <point x="572" y="616" type="line"/>
    </contour>
    <contour>
      <point x="58" y="558" type="line"/>
      <point x="941" y="558" type="line"/>
      <point x="941" y="780" type="line"/>
      <point x="58" y="780" type="line"/>
    </contour>
    <contour>
      <point x="58" y="0" type="line"/>
      <point x="941" y="0" type="line"/>
      <point x="941" y="222" type="line"/>
      <point x="58" y="222" type="line"/>
    </contour>
  </outline>
</glyph>
